<svg width="16" height="16" viewBox="0 0 16 16" fill="none" xmlns="http://www.w3.org/2000/svg">
<g clip-path="url(#clip0_1766_8340)">
<rect y="-0.5" width="16" height="17" fill="#DA2128"/>
<path d="M8.1592 2.97949L8.37383 3.64017H9.06874L8.5064 4.04851L8.72103 4.70918L8.1592 4.30101L7.59687 4.70918L7.81167 4.04851L7.25 3.64017H7.94457L8.1592 2.97949Z" fill="#FFDE00"/>
<path d="M8.1592 7.15137L8.37383 7.81238H9.06874L8.5064 8.22054L8.72103 8.88139L8.1592 8.47289L7.59687 8.88139L7.81167 8.22054L7.25 7.81238H7.94457L8.1592 7.15137Z" fill="#FFDE00"/>
<path d="M10.0931 6.03223L10.3079 6.6929H11.0027L10.4408 7.10124L10.6555 7.76192L10.0931 7.35375L9.5313 7.76192L9.74593 7.10124L9.18359 6.6929H9.87833L10.0931 6.03223Z" fill="#FFDE00"/>
<path d="M10.0931 3.89551L10.3079 4.55602H11.0027L10.4408 4.96452L10.6555 5.62553L10.0931 5.21703L9.5313 5.62553L9.74593 4.96452L9.18359 4.55602H9.87833L10.0931 3.89551Z" fill="#FFDE00"/>
<path d="M4.69283 3.83154L5.28258 5.64596H7.18986L5.64689 6.76764L6.23647 8.58205L4.69283 7.46054L3.14937 8.58205L3.73894 6.76764L2.19531 5.64596H4.10326L4.69283 3.83154Z" fill="#FFDE00"/>
</g>
<defs>
<clipPath id="clip0_1766_8340">
<rect width="16" height="16" rx="8" fill="white"/>
</clipPath>
</defs>
</svg>
