<svg width="16" height="16" viewBox="0 0 16 16" fill="none" xmlns="http://www.w3.org/2000/svg">
<g clip-path="url(#clip0_1766_8307)">
<mask id="mask0_1766_8307" style="mask-type:luminance" maskUnits="userSpaceOnUse" x="0" y="0" width="16" height="16">
<path d="M14.1481 12.9861C16.9142 9.61229 16.4215 4.63489 13.0477 1.8688C9.67382 -0.897294 4.69642 -0.404609 1.93033 2.96924C-0.835765 6.34308 -0.343083 11.3205 3.03076 14.0866C6.40461 16.8527 11.382 16.36 14.1481 12.9861Z" fill="white"/>
</mask>
<g mask="url(#mask0_1766_8307)">
<path d="M6.03915 -0.265625H-4.02344V5.11681H6.03915V-0.265625Z" fill="#00237C"/>
<path d="M-1.2614 -0.265625H-4.02344V1.42692L9.4517 10.3242L12.7309 8.9739L-1.2614 -0.265625Z" fill="white"/>
<path d="M-4.02344 -0.124268V1.03903L9.63021 10.0542L10.1645 9.24389L-4.02344 -0.124268Z" fill="#CF142B"/>
<path d="M20.2157 -0.265625H10.1523V5.11681H20.2157V-0.265625Z" fill="#00237C"/>
<path d="M17.4539 -0.265625H20.2151V1.42692L6.74031 10.3242L3.46094 8.9739L17.4539 -0.265625Z" fill="white"/>
<path d="M20.2159 -0.124023V1.03927L6.56303 10.0545L6.02734 9.24413L20.2159 -0.124023Z" fill="#CF142B"/>
<path d="M20.2157 10.5791H10.1523V15.9615H20.2157V10.5791Z" fill="#00237C"/>
<path d="M17.4539 15.9619H20.2151V14.2692L6.74031 5.37207L3.46094 6.72234L17.4539 15.9619Z" fill="white"/>
<path d="M20.2159 15.8203V14.657L6.56303 5.6416L6.02734 6.45211L20.2159 15.8203Z" fill="#CF142B"/>
<path d="M6.03915 10.5797H-4.02344V15.9621H6.03915V10.5797Z" fill="#00237C"/>
<path d="M-1.2614 15.9621H-4.02344V14.2694L9.4517 5.37231L12.7309 6.72259L-1.2614 15.9621Z" fill="white"/>
<path d="M-4.02344 15.8208V14.6575L9.63021 5.64209L10.1645 6.4526L-4.02344 15.8208Z" fill="#CF142B"/>
<path d="M20.2166 5.11681H10.1744V-0.265625H5.9786V5.11681H-4.02344V10.4585H5.9786V15.9621H10.1744V10.4585H20.2166V5.11681Z" fill="white"/>
<path d="M20.2166 6.2092H9.28401V-0.265625H6.86895V6.2092H-4.02344V9.36575H6.86895V15.9621H9.28401V9.36575H20.2166V6.2092Z" fill="#CF142B"/>
</g>
</g>
<defs>
<clipPath id="clip0_1766_8307">
<rect width="16" height="16" fill="white"/>
</clipPath>
</defs>
</svg>
