<svg width="1520" height="265" viewBox="0 0 1520 265" fill="none" xmlns="http://www.w3.org/2000/svg">
<path d="M211.997 58.3708C195.047 41.8981 172.128 33.6617 143.241 33.6617C114.354 33.6617 91.4357 41.8981 74.4855 58.3708C56.3416 76.5147 47.2696 101.224 47.2696 132.498C47.2696 163.773 56.3416 188.482 74.4855 206.626C91.4357 223.098 114.354 231.335 143.241 231.335C172.128 231.335 195.047 223.098 211.997 206.626C230.141 188.482 239.213 163.773 239.213 132.498C239.213 101.224 230.141 76.5147 211.997 58.3708ZM248.882 36.5265C273.949 60.1613 286.483 92.1519 286.483 132.498C286.483 172.845 273.949 204.835 248.882 228.47C222.86 252.821 187.646 264.996 143.241 264.996C98.5978 264.996 63.3843 252.821 37.6008 228.47C12.5336 204.835 0 172.845 0 132.498C0 92.1519 12.5336 60.1613 37.6008 36.5265C63.3843 12.1755 98.5978 0 143.241 0C187.646 0 222.86 12.1755 248.882 36.5265Z" fill="#FFFDFA"/>
<path d="M355.829 118.532L478.3 7.16206H533.448L402.024 123.904L539.178 257.834H480.807L355.829 129.633V257.834H311.424V7.16206H355.829V118.532Z" fill="#FFFDFA"/>
<path d="M669.813 231.335C699.893 231.335 725.08 222.74 745.372 205.551C756.354 195.763 764.949 183.468 771.156 168.667C777.602 153.865 780.825 137.631 780.825 119.965C780.825 95.6136 774.856 76.0373 762.919 61.2357C748.118 42.853 725.438 33.6617 694.88 33.6617C664.799 33.6617 639.612 42.2562 619.32 59.4451C608.338 69.2333 599.624 81.5282 593.178 96.3298C586.971 111.131 583.868 127.365 583.868 145.032C583.868 169.383 589.836 188.959 601.773 203.761C616.336 222.143 639.016 231.335 669.813 231.335ZM704.907 0C745.969 0 777.124 11.8174 798.372 35.4522C818.187 57.6546 828.094 85.348 828.094 118.532C828.094 140.735 823.081 162.34 813.054 183.349C803.027 204.358 788.703 221.547 770.081 234.916C741.911 254.97 705.145 264.996 659.786 264.996C640.209 264.996 622.782 262.609 607.503 257.834C592.223 252.821 578.496 243.391 566.321 229.544C546.506 207.342 536.598 179.648 536.598 146.464C536.598 124.262 541.612 102.656 551.638 81.6475C561.665 60.6388 575.989 43.4499 594.611 30.0807C622.782 10.0269 659.547 0 704.907 0Z" fill="#FFFDFA"/>
<path d="M911.048 41.54H817.941V7.16206H1048.2V41.54H955.453V257.834H911.048V41.54Z" fill="#FFFDFA"/>
<path d="M1092.16 161.863H1189.56L1140.5 48.3439L1092.16 161.863ZM1078.91 194.092L1050.98 257.834H1002.99L1117.23 7.16206H1164.5L1278.37 257.834H1230.39L1201.38 194.092H1078.91Z" fill="#FFFDFA"/>
<path d="M1330.21 142.525V257.834H1285.8V7.16206H1330.21V108.147H1475.6V7.16206H1520V257.834H1475.6V142.525H1330.21Z" fill="#FFFDFA"/>
</svg>
