<svg width="16" height="16" viewBox="0 0 16 16" fill="none" xmlns="http://www.w3.org/2000/svg">
<path d="M2.67773 1.85156C3.04543 1.61115 3.53203 1.74236 3.72266 2.12402L3.72363 2.12695L5.25293 5.08008C5.39276 5.35004 5.34784 5.68227 5.15234 5.90527L5.05957 5.99316L3.68555 7.06348L3.51953 7.19238L3.61914 7.37891C4.17623 8.41679 4.70995 9.26515 5.74121 10.2822V10.2832C6.6941 11.2371 7.5251 11.8017 8.59668 12.377L8.78223 12.4766L8.91211 12.3105L9.99512 10.9189L9.99609 10.9199C10.2157 10.6423 10.603 10.5569 10.9014 10.7227L10.9082 10.7266L13.874 12.2568L13.877 12.2578C14.2582 12.4488 14.3877 12.9361 14.1465 13.3047L12.9082 15.1865V15.1875C12.666 15.5576 12.246 15.7734 11.8018 15.748C11.2727 15.7178 10.6037 15.6427 10.1533 15.5264H10.1543C8.0953 14.9887 5.94695 13.6989 4.12305 11.873C2.41303 10.1612 1.17377 8.16419 0.583008 6.22266L0.473633 5.83594C0.3867 5.49856 0.331862 5.04842 0.290039 4.61621L0.251953 4.19434C0.228888 3.76342 0.432151 3.34761 0.796875 3.1084L0.798828 3.10742L2.67871 1.85254L2.67773 1.85156Z" stroke="#FFFDFA" stroke-width="0.5"/>
<circle cx="10.6661" cy="2.96296" r="2.96296" fill="#9B0000"/>
</svg>
