<svg width="138" height="17" viewBox="0 0 138 17" fill="none" xmlns="http://www.w3.org/2000/svg">
<g clip-path="url(#clip0_0_67)">
<path d="M10.8022 8.84819C9.34132 14.2759 7.8393 17 1.67691 17C1.12137 17 0.555541 16.959 0 16.9386L1.20367 12.4633C1.36828 12.5145 1.54317 12.5247 1.73864 12.5247C3.69332 12.5247 4.10483 10.6916 4.52663 9.14518L6.92369 0.307229H13.0964L10.8022 8.84819ZM26.6968 10.5482H18.4666L17.9111 12.5964H28.1989L27.0981 16.6928H10.6376L15.051 0.307229H27.3964L26.2853 4.40361H20.1229L19.5674 6.45181H27.7976L26.6968 10.5482ZM56.1302 4.40361C55.4615 3.41024 54.4636 3.37952 53.3217 3.37952C52.6838 3.37952 49.9473 3.47169 49.9473 4.49578C49.9473 6.01145 60.5951 5.78614 60.5951 10.3639C60.5951 15.7199 53.7126 17 49.6592 17C46.9021 17 41.6964 16.5904 41.6964 12.791C41.6964 12.3813 41.7582 11.9717 41.861 11.5723H48.0337C48.044 11.7464 48.1469 11.9819 48.2395 12.1151C48.7539 12.9241 49.8135 13.1084 50.7086 13.1084C51.7785 13.1084 54.1755 13.1084 54.1755 11.6235C54.1755 9.70843 43.4557 10.3434 43.4557 6.03193C43.4557 5.46867 43.6408 4.91566 43.8466 4.40361H39.464L36.1513 16.6928H29.9786L33.2913 4.40361H28.1371L29.2482 0.307229H45.7087L45.1017 2.55C47.3239 0.358434 51.2847 0 54.2373 0C56.5417 0 60.8112 0.276506 62.0457 2.67289L62.6835 0.307229H84.2879L85.7179 6.45181L90.4606 0.307229H96.6333L87.1479 12.5964L86.0471 16.6928H79.8745L80.9753 12.5964L80.9855 12.5861L78.5885 2.34518L78.0329 4.40361H72.8993L69.5867 16.6928H63.414L66.7267 4.40361H56.1302ZM105.182 16.6928H92.8371L97.2505 0.307229H103.423L100.111 12.5964H106.283L105.182 16.6928ZM122.27 10.5482H114.04L113.485 12.5964H123.772L122.672 16.6928H106.211L110.625 0.307229H122.97L121.859 4.40361H115.697L115.141 6.45181H123.371L122.27 10.5482Z" fill="white"/>
<path d="M125.12 0.307617H131.293L130.737 2.35581C130.737 2.35581 132.543 2.35581 133.75 2.35581C133.767 2.35581 133.785 2.35581 133.802 2.35581C133.802 2.34522 133.824 2.35581 133.824 2.35581C133.829 2.3377 133.831 2.32755 133.836 2.30944C133.879 2.15172 133.946 1.90556 133.946 1.90556L134.379 0.307617H137.466L136.91 2.35581C136.91 2.35581 135.07 2.35581 133.864 2.35581C133.802 2.34522 133.824 2.35581 133.824 2.35581C133.822 2.36329 133.82 2.37081 133.818 2.37839C133.651 3.00442 133.397 3.95729 133.397 3.95729L133.279 4.404H133.069H124.02L125.12 0.307617ZM128.063 8.50039H131.149L130.593 10.5486H124.421L125.522 6.4522H128.608L128.063 8.50039Z" fill="#ED1A3B"/>
<path d="M137.31 0.307617H140.397L139.841 2.35581H136.795C136.773 2.35211 136.762 2.35099 136.756 2.35111L136.755 2.35581L136.749 2.37839L136.681 2.35581H136.733C136.733 2.34522 136.755 2.35581 136.755 2.35581C136.755 2.35581 136.746 2.35132 136.756 2.35111L136.767 2.30944L136.877 1.90556L137.31 0.307617Z" fill="#ED1A3B"/>
</g>
<defs>
<clipPath id="clip0_0_67">
<rect width="137.466" height="17" fill="white"/>
</clipPath>
</defs>
</svg>
